HIERARCHY
ROOT Hips
{
	OFFSET -13.091600 -28.302996 44.698402
	CHANNELS 6 Xposition Yposition Zposition Zrotation Xrotation Yrotation
	JOINT Chest
	{
		OFFSET -0.673000 0.623899 5.369202
		CHANNELS 6 Xposition Yposition Zposition Zrotation Xrotation Yrotation
		JOINT Chest2
		{
			OFFSET 0.000000 0.000000 4.415001
			CHANNELS 6 Xposition Yposition Zposition Zrotation Xrotation Yrotation
			JOINT Neck
			{
				OFFSET 0.000000 0.000002 10.273300
				CHANNELS 6 Xposition Yposition Zposition Zrotation Xrotation Yrotation
				JOINT Head
				{
					OFFSET 0.000000 0.000000 2.173897
					CHANNELS 6 Xposition Yposition Zposition Zrotation Xrotation Yrotation
					End Site
					{
						OFFSET 0.000000 0.000000 9.961800
					}
				}
			}
			JOINT LeftCollar
			{
				OFFSET 2.359900 -0.565201 5.928101
				CHANNELS 6 Xposition Yposition Zposition Zrotation Xrotation Yrotation
				JOINT LeftShoulder
				{
					OFFSET 5.443700 0.000000 0.000000
					CHANNELS 6 Xposition Yposition Zposition Zrotation Xrotation Yrotation
					JOINT LeftElbow
					{
						OFFSET 0.000000 0.000000 -10.615799
						CHANNELS 6 Xposition Yposition Zposition Zrotation Xrotation Yrotation
						JOINT LeftWrist
						{
							OFFSET 0.000000 -0.000002 -13.110302
							CHANNELS 6 Xposition Yposition Zposition Zrotation Xrotation Yrotation
							End Site
							{
								OFFSET 0.000000 0.000000 -2.173901
							}
						}
					}
				}
			}
			JOINT RightCollar
			{
				OFFSET -2.636600 -1.718800 6.889698
				CHANNELS 6 Xposition Yposition Zposition Zrotation Xrotation Yrotation
				JOINT RightShoulder
				{
					OFFSET -4.139101 0.000000 0.000000
					CHANNELS 6 Xposition Yposition Zposition Zrotation Xrotation Yrotation
					JOINT RightElbow
					{
						OFFSET 0.000000 0.000000 -10.471802
						CHANNELS 6 Xposition Yposition Zposition Zrotation Xrotation Yrotation
						JOINT RightWrist
						{
							OFFSET 0.000000 0.000000 -12.281898
							CHANNELS 6 Xposition Yposition Zposition Zrotation Xrotation Yrotation
							End Site
							{
								OFFSET 0.000000 -0.000002 -2.173901
							}
						}
					}
				}
			}
		}
	}
	JOINT LeftHip
	{
		OFFSET 2.273400 0.176701 -2.518002
		CHANNELS 6 Xposition Yposition Zposition Zrotation Xrotation Yrotation
		JOINT LeftKnee
		{
			OFFSET 0.000000 -0.000002 -20.456402
			CHANNELS 6 Xposition Yposition Zposition Zrotation Xrotation Yrotation
			JOINT LeftAnkle
			{
				OFFSET 0.000000 -0.000002 -16.635300
				CHANNELS 6 Xposition Yposition Zposition Zrotation Xrotation Yrotation
				End Site
				{
					OFFSET 0.000000 -8.812399 0.000001
				}
			}
		}
	}
	JOINT RightHip
	{
		OFFSET -1.914800 0.018101 -2.699299
		CHANNELS 6 Xposition Yposition Zposition Zrotation Xrotation Yrotation
		JOINT RightKnee
		{
			OFFSET 0.000000 -0.000002 -20.148901
			CHANNELS 6 Xposition Yposition Zposition Zrotation Xrotation Yrotation
			JOINT RightAnkle
			{
				OFFSET 0.000000 -0.000002 -16.838301
				CHANNELS 6 Xposition Yposition Zposition Zrotation Xrotation Yrotation
				End Site
				{
					OFFSET 0.000000 -8.328398 0.000001
				}
			}
		}
	}
}
MOTION
Frames: 7
Frame Time: 0.041667
-8.195999 -9.091896 37.319099 3443.550574 5.286680 -9.062272 -0.673008 0.623896 5.369200 29.649441 42.862627 -25.880710 -0.000001 0.000000 4.415000 -6.956090 -5.090300 -0.865612 -0.000004 -0.000002 10.273294 -31.993333 46.077689 7.849457 -0.000001 -0.000005 2.173898 -3.032796 -0.397972 -4.076242 2.359898 -0.565203 5.928102 -2.250361 10.945354 -9.017982 5.443699 -0.000003 -0.000005 -54.734308 352.424401 -16.706938 -0.000004 0.000000 -10.615797 618.925296 -99.698933 233.040727 0.000009 0.000003 -13.110294 -1918.506592 188.962962 -482.453089 -2.636608 -1.718807 6.889704 175.132034 -173.313933 165.865393 -4.139100 -0.000011 0.000004 139.127101 -182.627934 575.876253 -0.000004 0.000003 -10.471792 -113.996779 -38.941545 -519.753299 -0.000006 -0.000002 -12.281895 -26.506742 -14.290235 -5.466792 2.273393 0.176696 -2.518004 -482.277362 -132.074876 -131.454121 0.000006 -0.000002 -20.456396 765.295868 151.237682 -101.275006 -0.000007 -0.000002 -16.635300 -318.213596 4.362070 19.025325 -1.914804 0.018100 -2.699299 42.932428 200.167368 118.668922 0.000003 -0.000000 -20.148903 -696.726232 -186.588419 81.543122 0.000001 -0.000001 -16.838299 1014.061356 19.626733 -25.740789
-8.172901 -8.997396 37.490601 3443.507953 4.866527 -8.953713 -0.673000 0.623890 5.369213 29.241795 42.854294 -25.512695 0.000001 0.000000 4.415009 -6.765217 -5.133819 -0.860683 -0.000004 0.000002 10.273296 -32.070187 46.131955 8.234065 -0.000001 -0.000010 2.173904 -2.839070 -0.317757 -4.088500 2.359902 -0.565205 5.928101 -2.524932 10.964200 -8.963655 5.443700 0.000000 0.000004 -54.488787 351.928666 -17.266337 -0.000001 0.000005 -10.615801 617.292662 -100.388433 231.463800 0.000010 0.000003 -13.110296 -1918.164099 189.124113 -481.972189 -2.636603 -1.718805 6.889701 175.586528 -173.839707 165.953434 -4.139100 -0.000006 0.000005 139.325996 -181.927689 575.138046 -0.000003 0.000010 -10.471798 -114.646870 -38.857155 -519.921923 -0.000002 -0.000004 -12.281894 -26.455852 -14.129948 -4.841066 2.273400 0.176701 -2.518002 -484.641755 -131.869916 -133.858566 0.000004 -0.000002 -20.456398 767.060515 150.406257 -102.347912 -0.000007 0.000001 -16.635302 -318.750039 4.512431 18.840780 -1.914794 0.018106 -2.699297 41.958716 199.323525 119.020322 0.000003 0.000000 -20.148903 -695.726948 -185.916465 82.204913 -0.000001 -0.000003 -16.838303 1013.737332 19.808920 -25.901875
-8.157103 -8.896496 37.661400 3443.453530 4.415467 -8.802601 -0.673002 0.623900 5.369210 28.885908 42.833124 -25.245265 0.000002 0.000001 4.415010 -6.729315 -5.103329 -0.862758 -0.000002 -0.000004 10.273293 -31.659385 46.284855 7.968086 -0.000001 -0.000005 2.173898 -3.090143 -0.426339 -4.121223 2.359900 -0.565206 5.928098 -2.271044 10.514415 -9.294937 5.443700 0.000003 0.000005 -54.362428 351.447684 -17.123797 0.000001 0.000005 -10.615794 616.698217 -100.751075 231.060437 0.000006 0.000002 -13.110293 -1918.232291 189.193194 -481.904270 -2.636604 -1.718810 6.889697 176.214250 -173.506312 166.944699 -4.139096 -0.000008 0.000002 139.060657 -182.335165 574.318587 -0.000004 0.000006 -10.471802 -115.657519 -38.831948 -520.515384 -0.000004 -0.000006 -12.281898 -26.924630 -13.965735 -4.317209 2.273398 0.176700 -2.518003 -487.112371 -131.731878 -136.333226 0.000003 -0.000003 -20.456398 768.915977 149.329505 -103.413244 -0.000005 -0.000001 -16.635298 -319.465515 4.656877 18.566271 -1.914796 0.018109 -2.699295 41.035001 198.527453 119.483764 0.000002 -0.000002 -20.148905 -694.732910 -186.505555 82.782712 -0.000000 -0.000002 -16.838299 1014.252711 20.170273 -25.105984
-8.141102 -8.792492 37.832203 3443.318675 4.091953 -8.631938 -0.673001 0.623896 5.369204 28.616432 42.678092 -24.872146 0.000001 -0.000003 4.415007 -6.595652 -5.083309 -0.851450 0.000001 -0.000005 10.273297 -31.486110 46.403048 7.829787 -0.000002 -0.000001 2.173900 -3.223454 -0.381198 -4.102204 2.359900 -0.565200 5.928098 -2.396958 10.496464 -9.379320 5.443704 -0.000004 0.000002 -54.327154 350.995772 -17.571382 -0.000000 0.000002 -10.615797 616.001046 -101.169226 230.146229 0.000008 -0.000002 -13.110293 -1918.273819 189.441430 -481.341790 -2.636602 -1.718805 6.889696 176.840810 -173.953170 167.351164 -4.139098 -0.000005 0.000007 138.887990 -181.714451 573.456344 -0.000001 0.000010 -10.471797 -116.809718 -38.923462 -520.989235 -0.000003 -0.000005 -12.281898 -27.504262 -13.645659 -4.253356 2.273402 0.176702 -2.518002 -489.821388 -131.458739 -138.972247 0.000001 -0.000004 -20.456396 771.358234 147.704139 -104.653012 -0.000004 -0.000003 -16.635302 -320.604927 4.893548 18.050674 -1.914792 0.018102 -2.699306 40.111235 197.642151 119.818416 -0.000002 -0.000002 -20.148905 -693.755373 -185.734659 83.489138 -0.000004 -0.000001 -16.838303 1013.849785 20.429494 -25.086197
-8.125898 -8.683397 38.002705 3443.213326 3.598631 -8.516092 -0.673000 0.623898 5.369206 28.323416 42.713350 -24.537798 0.000001 0.000003 4.415004 -6.439037 -5.098991 -0.841172 -0.000005 -0.000000 10.273297 -31.484382 46.521832 7.935607 -0.000000 -0.000002 2.173898 -3.218547 -0.288017 -4.059922 2.359899 -0.565207 5.928100 -2.551971 10.509347 -9.331410 5.443692 -0.000004 0.000000 -54.452396 350.587080 -18.200120 -0.000003 -0.000000 -10.615793 614.704021 -101.664654 228.431073 0.000006 0.000004 -13.110296 -1917.739643 189.121982 -480.957114 -2.636605 -1.718807 6.889697 177.354509 -174.533969 167.537997 -4.139097 -0.000009 0.000005 138.619126 -180.659897 572.635246 0.000000 -0.000003 -10.471799 -116.299789 -38.779543 -520.642371 -0.000001 -0.000007 -12.281897 -27.026398 -13.386227 -3.801297 2.273400 0.176705 -2.518006 -492.927594 -131.374003 -141.926017 0.000004 -0.000000 -20.456398 773.836391 146.565806 -105.955925 -0.000004 -0.000004 -16.635298 -321.322534 5.095985 17.791806 -1.914793 0.018100 -2.699298 39.289379 197.043772 120.293456 0.000002 -0.000003 -20.148907 -692.801660 -184.758434 84.161960 -0.000003 0.000002 -16.838303 1013.383692 20.460342 -25.832093
-8.110201 -8.579294 38.173805 3443.201742 3.185752 -8.460262 -0.673005 0.623901 5.369204 28.040508 42.620787 -24.178477 0.000002 0.000004 4.415004 -6.402594 -5.091217 -0.829390 0.000000 -0.000001 10.273289 -31.503196 46.660232 7.755937 -0.000002 -0.000005 2.173901 -3.324992 -0.271358 -4.245929 2.359900 -0.565204 5.928103 -2.651367 10.641642 -9.327480 5.443700 -0.000004 0.000004 -54.717848 350.128283 -18.971441 -0.000000 0.000011 -10.615791 614.324809 -102.137966 227.647528 0.000013 0.000001 -13.110302 -1917.707733 189.284486 -480.691884 -2.636601 -1.718805 6.889698 177.693150 -175.000511 167.538448 -4.139100 -0.000004 0.000004 138.285922 -179.480870 572.108284 -0.000001 -0.000002 -10.471806 -116.716690 -38.907244 -520.952735 -0.000006 -0.000005 -12.281896 -27.269950 -13.042151 -3.525213 2.273396 0.176702 -2.518002 -496.301872 -131.297123 -144.942037 0.000004 -0.000006 -20.456400 776.368478 145.959940 -107.302743 -0.000010 0.000001 -16.635300 -321.571426 5.260639 17.811716 -1.914797 0.018104 -2.699298 38.122383 196.240829 120.576444 0.000004 -0.000003 -20.148903 -691.655391 -183.584775 84.910699 -0.000002 0.000002 -16.838303 1012.783073 20.597769 -26.305907
-8.093098 -8.468794 38.353504 3443.260537 2.705198 -8.320244 -0.673002 0.623895 5.369210 27.790670 42.588938 -24.036254 0.000004 -0.000003 4.415007 -6.417249 -5.061930 -0.824343 -0.000001 0.000003 10.273285 -31.365953 46.706797 7.694559 -0.000000 -0.000002 2.173898 -3.326630 -0.245031 -4.323957 2.359898 -0.565191 5.928092 -2.482716 10.571341 -9.618672 5.443695 0.000007 -0.000001 -55.295429 349.564273 -19.465482 -0.000002 0.000007 -10.615789 627.450356 -101.192053 240.416238 0.000008 -0.000001 -13.110291 -1913.304938 188.409771 -481.367581 -2.636603 -1.718799 6.889695 177.947520 -174.836642 168.176907 -4.139103 -0.000001 -0.000003 137.823901 -178.988782 571.566076 -0.000003 0.000006 -10.471799 -115.342210 -38.605302 -520.355339 0.000003 -0.000005 -12.281896 -26.539170 -12.969824 -2.782568 2.273399 0.176700 -2.518000 -500.003834 -131.346860 -148.150013 0.000001 -0.000004 -20.456398 777.789322 147.310378 -108.232844 -0.000005 0.000001 -16.635302 -320.008843 5.065006 18.961838 -1.914795 0.018100 -2.699300 37.006330 195.480642 121.055035 0.000000 0.000000 -20.148907 -690.489341 -182.237739 85.676609 0.000000 -0.000003 -16.838301 1012.036670 20.661881 -27.078702
